<svg viewBox="0 0 606 606" xmlns="http://www.w3.org/2000/svg">
    <path fill="#8cc36c" d="M 323 11 C -2 -33 -153 488 265 597 L 265 590 C 265 436 273 442 144 439 C 131 435 122 420 133 396 L 135 388 L 136 382.397 L 130.378 372.949 L 130 372 C 111 354 122 356 132 351 C 136.1667 347.753 162 342 138 337 C 121 330 108 334 123 314 L 122.884 314.5 L 123.536 309.5 L 124.187 304.5 L 123 314 C 131 307 142 296 111 289 C 62 278 81 260 109 241 C 144 217 135 205 141 183 C 143 164 143.5633 154.1667 148 132 C 179 52 257 10 324 11 M 542 490 C 526 502 522 501 505 502 C 481 504 472 514 472 547 L 443 564 C 458 541 425.2727 528.3837 415 525 L 415 525 C 414 539 407 556 432 568 L 432.416 568.253 L 427.958 570.511 C 371 597 288 598 261 590 L 265 597 C 273 596 373 617 476 549 C 494 554 532 550 542 490" />
    
    <path fill="#8bb4dc" d="M 399 41 C 298 24 168 46 166 182 C 226 162 281 144 292 184 C 287 203 304 236 332 191 C 326 161 347 165 334 190 L 334 190 C 345 221 377 222 391 185 L 391 185 C 385 38 457 68 395 187 L 395 187 C 394 242 405 232 422 216 C 469 183 471 183 520 170 L 520 170 L 509.025 147.064 L 500 128.629 L 500 129 C 483 73 445 48 399 41 M 394 182 C 447 70 392 48 394 182 M 166 184 C 167 198 171 237 244 232 C 246 232 253 231 254 235 L 254 235 L 254 235 C 254 235 261 305 334 270 L 334 270 C 344 289 349 287 355 289 L 358.596 296.189 L 362.5 303.325 L 366.88 308.204 L 371.26 313.083 L 374.005 314.502 L 376.749 315.922 L 386.524 329.711 L 396.3 343.5 L 398.324 345.75 C 408 353 423 349 418 334 L 415.13 326.5 L 412.208 319.5 L 414.947 318.311 L 417.685 317.123 L 420.932 313.425 L 424 310 C 480 313 483 288 484 264 C 513 257 536 230 521 173 C 512 175 468 180 415 226 C 402 237 389 234 392 191 L 392 189 C 374 230 343 219 333 193 L 333 193 C 321 221 287 230 289 184 C 279 149 234 162 166 184 M 333 189 C 342 169 330 167 333 189" />
</svg>